<svg width="14" height="14" viewBox="0 0 14 14" fill="none" xmlns="http://www.w3.org/2000/svg">
<path d="M0.42 13.58C0.7 13.86 0.98 14 1.4 14C1.82 14 2.1 13.86 2.38 13.58L7 8.96L11.62 13.58C11.9 13.86 12.32 14 12.6 14C12.88 14 13.3 13.86 13.58 13.58C14.14 13.02 14.14 12.18 13.58 11.62L8.96 7L13.58 2.38C14.14 1.82 14.14 0.98 13.58 0.42C13.02 -0.14 12.18 -0.14 11.62 0.42L7 5.04L2.38 0.42C1.82 -0.14 0.98 -0.14 0.42 0.42C-0.14 0.98 -0.14 1.82 0.42 2.38L5.04 7L0.42 11.62C-0.14 12.18 -0.14 13.02 0.42 13.58Z" fill="#212529"/>
</svg>
